<svg width="20" height="21" viewBox="0 0 20 21" fill="none" xmlns="http://www.w3.org/2000/svg">
<g id="Icon &#226;&#134;&#147;">
<g id="Icon &#226;&#134;&#147;_2">
<path d="M3 6.5C3 5.94772 3.44772 5.5 4 5.5H16C16.5523 5.5 17 5.94772 17 6.5C17 7.05228 16.5523 7.5 16 7.5H4C3.44772 7.5 3 7.05228 3 6.5Z" fill="#121C2D"/>
<path d="M5 10.5C5 9.94772 5.44772 9.5 6 9.5H14C14.5523 9.5 15 9.94772 15 10.5C15 11.0523 14.5523 11.5 14 11.5H6C5.44772 11.5 5 11.0523 5 10.5Z" fill="#121C2D"/>
<path d="M8 13.5C7.44772 13.5 7 13.9477 7 14.5C7 15.0523 7.44772 15.5 8 15.5H12C12.5523 15.5 13 15.0523 13 14.5C13 13.9477 12.5523 13.5 12 13.5H8Z" fill="#121C2D"/>
</g>
</g>
</svg>
