<svg width="18" height="19" viewBox="0 0 18 19" fill="none" xmlns="http://www.w3.org/2000/svg">
<g id="ic:round-cell-tower">
<path id="Vector" d="M5.92498 11.075L5.99248 11.0075C6.19498 10.805 6.23248 10.475 6.05248 10.25C5.51998 9.56754 5.24998 8.75754 5.24998 8.00004C5.24998 7.19004 5.51248 6.38004 6.02998 5.74254C6.21748 5.51754 6.18748 5.18004 5.97748 4.97754L5.92498 4.92504C5.66998 4.67004 5.24998 4.70004 5.02498 4.98504C4.34248 5.87004 3.97498 6.93504 3.97498 8.00004C3.97498 9.06504 4.34248 10.13 5.02498 11.015C5.24998 11.3 5.66998 11.33 5.92498 11.075ZM13.8825 3.11754L13.8225 3.17754C13.5975 3.40254 13.605 3.74754 13.8 3.98754C14.745 5.13504 15.225 6.59754 15.225 8.00004C15.225 9.40254 14.7525 10.8575 13.8 12.0125C13.59 12.26 13.6275 12.635 13.86 12.8675C14.1225 13.13 14.5575 13.1 14.79 12.815C15.9675 11.405 16.5 9.73254 16.5 8.00004C16.5 6.26004 15.9075 4.58754 14.7675 3.17754C14.5425 2.90004 14.13 2.87004 13.8825 3.11754Z" fill="#354ACB"/>
<path id="Vector_2" d="M4.1775 3.17754L4.1175 3.11754C3.87 2.87004 3.4575 2.90004 3.2325 3.17754C2.0925 4.58754 1.5 6.26004 1.5 8.00004C1.5 9.74004 2.0925 11.4125 3.2325 12.8225C3.4575 13.1 3.87 13.1375 4.1175 12.8825L4.1775 12.8225C4.4025 12.5975 4.395 12.2525 4.2 12.0125C3.2475 10.8575 2.775 9.40254 2.775 8.00004C2.775 6.59754 3.2475 5.14254 4.2 3.98754C4.395 3.74754 4.4025 3.40254 4.1775 3.17754ZM12.0525 11.0525C12.3225 11.3225 12.765 11.2925 12.9975 10.985C13.6725 10.1 14.025 9.05004 14.025 8.00004C13.965 6.94254 13.6425 5.87754 12.975 4.99254C12.9239 4.92393 12.8586 4.86709 12.7836 4.82588C12.7087 4.78466 12.6257 4.76002 12.5404 4.75362C12.4551 4.74722 12.3694 4.75921 12.2891 4.78878C12.2088 4.81836 12.1358 4.86482 12.075 4.92504L12.015 4.98504C11.8125 5.18754 11.775 5.51754 11.955 5.74254C12.48 6.43254 12.75 7.24254 12.75 8.00004C12.75 8.80254 12.495 9.59754 11.9925 10.235C11.7975 10.475 11.8275 10.8275 12.0525 11.0525ZM10.875 8.00004C10.875 6.80004 9.7425 5.86254 8.49 6.19254C7.89 6.35004 7.395 6.83004 7.215 7.43004C6.975 8.22504 7.26 8.96004 7.785 9.41004L5.565 16.0625C5.4075 16.5275 5.7525 17 6.24 17C6.5475 17 6.8175 16.805 6.915 16.5125L7.2525 15.5H10.755L11.0925 16.5125C11.1202 16.6034 11.1658 16.6878 11.2267 16.7608C11.2875 16.8338 11.3624 16.8938 11.4468 16.9374C11.5312 16.981 11.6235 17.0073 11.7183 17.0146C11.813 17.0219 11.9082 17.0103 11.9984 16.9802C12.0885 16.9502 12.1717 16.9024 12.2431 16.8397C12.3145 16.7769 12.3726 16.7006 12.414 16.615C12.4554 16.5295 12.4792 16.4366 12.4841 16.3417C12.489 16.2468 12.4749 16.1519 12.4425 16.0625L10.2225 9.41004C10.62 9.06504 10.875 8.57004 10.875 8.00004ZM7.7475 14L9 10.25L10.2525 14H7.7475Z" fill="#354ACB"/>
</g>
</svg>
