<svg width="18" height="19" viewBox="0 0 18 19" fill="none" xmlns="http://www.w3.org/2000/svg">
<g id="ri:signal-tower-line">
<path id="Vector" d="M4.587 15.5653L5.34825 14.261C4.35345 13.4979 3.62268 12.4424 3.25858 11.2427C2.89449 10.043 2.91535 8.75935 3.31825 7.5721C3.72116 6.38486 4.48585 5.35365 5.50493 4.62332C6.524 3.893 7.74625 3.50025 9 3.50025C10.2537 3.50025 11.476 3.893 12.4951 4.62332C13.5142 5.35365 14.2788 6.38486 14.6817 7.5721C15.0847 8.75935 15.1055 10.043 14.7414 11.2427C14.3773 12.4424 13.6465 13.4979 12.6518 14.261L13.413 15.5653C14.3698 14.8697 15.1483 13.9575 15.6849 12.9033C16.2214 11.8491 16.5008 10.6829 16.5 9.5C16.5 5.35775 13.1423 2 9 2C4.85775 2 1.5 5.35775 1.5 9.5C1.49924 10.6829 1.77857 11.8491 2.31512 12.9033C2.85167 13.9575 3.6302 14.8697 4.587 15.5653ZM6.1125 12.9515C5.40377 12.3586 4.89476 11.5618 4.65462 10.6695C4.41447 9.77723 4.45485 8.83263 4.77026 7.96408C5.08567 7.09552 5.66082 6.34512 6.41756 5.81483C7.1743 5.28454 8.07595 5.00007 9 5.00007C9.92405 5.00007 10.8257 5.28454 11.5824 5.81483C12.3392 6.34512 12.9143 7.09552 13.2297 7.96408C13.5452 8.83263 13.5855 9.77723 13.3454 10.6695C13.1052 11.5618 12.5962 12.3586 11.8875 12.9515L11.115 11.627C11.5363 11.2082 11.8238 10.6736 11.941 10.0912C12.0582 9.50878 11.9999 8.90467 11.7733 8.35545C11.5468 7.80623 11.1623 7.33664 10.6686 7.00621C10.1748 6.67578 9.59411 6.49938 9 6.49938C8.4059 6.49938 7.82517 6.67578 7.33144 7.00621C6.8377 7.33664 6.4532 7.80623 6.22666 8.35545C6.00012 8.90467 5.94175 9.50878 6.05896 10.0912C6.17616 10.6736 6.46366 11.2082 6.885 11.627L6.1125 12.9515ZM8.25 10.25H9.75V17H8.25V10.25Z" fill="#354ACB"/>
</g>
</svg>
